<svg width="28" height="28" viewBox="0 0 28 28" fill="none" xmlns="http://www.w3.org/2000/svg">
<path d="M28 3.26087C28 5.06087 21.7327 6.52174 14 6.52174C6.26733 6.52174 0 5.06087 0 3.26087C0 1.46087 6.26733 0 14 0C21.7327 0 28 1.46087 28 3.26087Z" fill="#5CB85C"/>
<path d="M14 6.02173C6.3 6.02173 0 4.49999 0 2.76086V7.34782C0 9.08695 6.3 10.6087 14 10.6087C21.7 10.6087 28 9.08695 28 7.34782V2.76086C28 4.49999 21.7 6.02173 14 6.02173Z" fill="#5CB85C"/>
<path d="M14 12.7826C6.3 12.7826 0 11.2609 0 9.52173V16.0435C0 17.7826 6.3 19.3043 14 19.3043C21.7 19.3043 28 17.7826 28 16.0435V9.52173C28 11.2609 21.7 12.7826 14 12.7826Z" fill="#5CB85C"/>
<path d="M14 21.4783C6.3 21.4783 0 19.9565 0 18.2174V24.7391C0 26.4783 6.3 28 14 28C21.7 28 28 26.4783 28 24.7391V18.2174C28 19.9565 21.7 21.4783 14 21.4783Z" fill="#5CB85C"/>
</svg>
