<svg width="28" height="28" viewBox="0 0 28 28" fill="none" xmlns="http://www.w3.org/2000/svg">
<path d="M25.1475 4.48004C24.4419 3.83974 23.6107 3.35345 22.7068 3.05215C21.8029 2.75085 20.8461 2.64115 19.8975 2.73004C18.7794 2.7808 17.6886 3.09243 16.7125 3.64004C15.7533 4.11973 14.8446 4.69427 14 5.35504C13.1889 4.68945 12.3158 4.10342 11.3925 3.60504C10.449 3.05516 9.38598 2.74286 8.29499 2.69504C7.30871 2.609 6.31532 2.72953 5.37823 3.04892C4.44114 3.36832 3.58092 3.87956 2.85249 4.55004C2.14873 5.20271 1.58671 5.99314 1.20137 6.87222C0.816021 7.75129 0.615575 8.70022 0.612488 9.66004C0.657211 11.1528 1.19922 12.5879 2.15249 13.7375C5.01313 17.7551 8.36403 21.4 12.1275 24.5875L12.81 23.73L12.145 24.5875C12.6579 25.0426 13.3146 25.3027 14 25.3225C14.6963 25.305 15.3647 25.045 15.89 24.5875C19.8888 21.1055 23.4498 17.1507 26.495 12.81C27.0303 11.8842 27.3138 10.8344 27.3175 9.76504C27.3478 8.78105 27.1701 7.80175 26.7962 6.89108C26.4223 5.9804 25.8605 5.15884 25.1475 4.48004ZM24.6925 11.585C21.7578 15.7386 18.3452 19.5329 14.525 22.89C14.3862 23.0103 14.2164 23.0891 14.035 23.1175C13.8438 23.0928 13.6658 23.0069 13.5275 22.8725C9.90801 19.8176 6.68093 16.326 3.91999 12.4775C3.25174 11.6842 2.85875 10.6956 2.79999 9.66004C2.8039 9.00238 2.94258 8.3525 3.20745 7.75052C3.47232 7.14854 3.85776 6.60724 4.33999 6.16004C4.84605 5.69605 5.44427 5.34401 6.09561 5.1269C6.74695 4.90979 7.43675 4.83248 8.11999 4.90004H8.29499C9.03122 4.95777 9.74405 5.1854 10.3775 5.56504C11.1767 5.98488 11.9431 6.46458 12.67 7.00004L14 8.10254L15.33 7.00004C16.0657 6.43008 16.8504 5.92644 17.675 5.49504C18.3481 5.10177 19.1024 4.86827 19.88 4.81254H20.055C20.7085 4.74616 21.3686 4.81779 21.9926 5.02279C22.6167 5.22779 23.1907 5.56157 23.6775 6.00254C24.1541 6.45317 24.5347 6.99552 24.7963 7.59699C25.0579 8.19847 25.1953 8.84664 25.2 9.50254C25.2333 10.2309 25.0572 10.9536 24.6925 11.585Z" fill="#5CB85C"/>
</svg>
