<svg width="28" height="24" viewBox="0 0 28 24" fill="none" xmlns="http://www.w3.org/2000/svg">
<path d="M27.3 19H16.6924C16.66 19.8667 16.0488 20.4 15.26 20.4H12.6C11.7823 20.4 11.1554 19.6357 11.1663 19H0.7C0.315 19 0 19.315 0 19.7V20.4C0 21.94 1.26 23.2 2.8 23.2H25.2C26.74 23.2 28 21.94 28 20.4V19.7C28 19.315 27.685 19 27.3 19ZM25.2 2.90005C25.2 1.74505 24.255 0.800049 23.1 0.800049H4.9C3.745 0.800049 2.8 1.74505 2.8 2.90005V17.6H25.2V2.90005ZM22.4 14.8H5.6V3.60005H22.4V14.8Z" fill="#5CB85C"/>
</svg>
