<svg width="62" height="64" viewBox="0 0 62 64" fill="none" xmlns="http://www.w3.org/2000/svg">
<path d="M30.0475 0.0699342C28.7424 0.265041 27.4374 0.910395 26.5388 1.81089C25.6242 2.73139 25.0947 3.77196 24.8861 5.04766C24.7684 5.76306 24.7684 29.446 24.8861 30.1614C24.9931 30.8218 25.1482 31.3071 25.421 31.8524C26.3302 33.6433 28.0364 34.849 30.0849 35.1392C33.0908 35.5644 35.9363 33.9035 36.8884 31.172C37.2307 30.1965 37.2146 30.8768 37.2146 17.6045C37.2146 4.32227 37.2307 5.01264 36.8884 4.03211C35.9363 1.30561 33.0374 -0.370307 30.0475 0.0699342Z" fill="#00ADED" fill-opacity="0.98"/>
<path d="M13.4134 12.2266C13.3706 12.2366 13.1513 12.2716 12.932 12.3016C11.8195 12.4717 10.6321 13.0521 9.78702 13.8425C6.82924 16.599 4.83422 19.1404 3.2029 22.2071C1.15438 26.0692 0.122105 29.9913 0.00978428 34.3637C-0.172068 41.0624 2.18666 47.6811 6.6153 52.9239C8.07012 54.6499 10.0651 56.5109 11.889 57.8566C15.7026 60.6532 20.2596 62.6092 24.9824 63.4747C27.1539 63.8749 28.6034 64 31.0102 64C33.508 64 34.9415 63.8699 37.2681 63.4297C49.3131 61.1534 58.9566 52.1335 61.3903 40.8673C61.8609 38.6861 61.9947 37.3854 62 35.0391C62 33.1581 61.9465 32.3777 61.7058 30.8368C60.8501 25.3238 58.2988 20.1409 54.3729 15.9687C53.5492 15.0932 52.9823 14.5479 52.9181 14.5679C52.886 14.5829 52.656 14.4378 52.4046 14.2477C51.8644 13.8375 50.8696 13.3572 50.2117 13.1821C48.698 12.7819 46.9277 12.972 45.5745 13.6824C41.9481 15.5784 41.2528 20.1309 44.1785 22.8474C44.4245 23.0726 44.7615 23.3527 44.9326 23.4728C45.4889 23.853 46.6442 25.3188 47.4411 26.6445C49.6929 30.4116 50.3454 34.819 49.2757 39.0413C47.6925 45.2897 42.4776 50.2725 35.8079 51.9234C33.1871 52.5687 30.3684 52.6688 27.6353 52.2235C25.068 51.8033 22.4097 50.7677 20.2382 49.352C18.5855 48.2714 16.8632 46.6855 15.6812 45.1447C13.2476 41.9779 12.0281 38.0758 12.242 34.1536C12.4506 30.3365 13.9161 26.8596 16.5797 23.873C17.1413 23.2426 17.3767 23.0175 18.3769 22.127C19.5536 21.0815 20.1847 19.7707 20.2435 18.2399C20.2756 17.4445 20.2168 16.9992 19.9814 16.2788C19.6926 15.3833 19.1738 14.5829 18.441 13.9025C17.5104 13.027 16.3604 12.4767 15.0714 12.2766C14.6328 12.2116 13.6594 12.1816 13.4134 12.2266Z" fill="#00ADED" fill-opacity="0.98"/>
</svg>
