<svg width="28" height="28" viewBox="0 0 28 28" fill="none" xmlns="http://www.w3.org/2000/svg">
<g clip-path="url(#clip0_11_2)">
<path d="M24.0625 0.355465L1.3125 13.475C-0.568747 14.5633 -0.388278 17.3469 1.62422 18.1727L7.875 20.7594V25.375C7.875 27.9125 11.1125 28.957 12.6109 26.9391L15.0063 23.707L21.1258 26.2336C21.4484 26.3648 21.7875 26.4305 22.1266 26.4305C22.575 26.4305 23.018 26.3156 23.4172 26.0914C24.1172 25.6977 24.5984 24.9977 24.7242 24.2047L27.9727 3.02968C28.3063 0.836716 25.9547 -0.732816 24.0625 0.355465ZM10.5 25.375V21.8422L12.5016 22.668L10.5 25.375ZM22.1266 23.8055L13.7156 20.3328L21.3828 9.26953C21.968 8.42187 20.8633 7.4375 20.0867 8.11015L8.52032 18.1891L2.625 15.75L25.375 2.625L22.1266 23.8055Z" fill="#5CB85C" stroke="#5CB85C" stroke-width="0.125"/>
</g>
<defs>
<clipPath id="clip0_11_2">
<rect width="28" height="28" fill="white"/>
</clipPath>
</defs>
</svg>
