<svg width="28" height="28" viewBox="0 0 28 28" fill="none" xmlns="http://www.w3.org/2000/svg">
<g clip-path="url(#clip0_12_27)">
<path d="M22.6333 15.1667C22.6333 14.8167 22.75 14.35 22.75 14C22.75 13.65 22.75 13.1834 22.6333 12.8334L25.0833 11.0834C25.3167 10.9667 25.4333 10.6167 25.2 10.2667L22.8667 6.18337C22.75 5.83337 22.4 5.71671 22.1667 5.83337L19.3667 7.11671C18.7833 6.65004 17.9667 6.18337 17.2667 5.95004L16.9167 2.91671C16.9167 2.56671 16.6833 2.33337 16.3333 2.33337H11.6667C11.3167 2.33337 11.0833 2.56671 11.0833 2.91671L10.7333 5.83337C9.91667 6.18337 9.21667 6.53337 8.63333 7.00004L5.83333 5.83337C5.6 5.71671 5.25 5.83337 5.13333 6.06671L2.8 10.15C2.56667 10.5 2.56667 10.85 2.91667 10.9667L5.36667 12.8334C5.36667 13.1834 5.25 13.65 5.25 14C5.25 14.35 5.25 14.8167 5.36667 15.1667L2.91667 16.9167C2.68333 17.0334 2.56667 17.3834 2.8 17.7334L5.13333 21.8167C5.25 22.1667 5.6 22.2834 5.83333 22.1667L8.63333 20.8834C9.21667 21.35 10.0333 21.8167 10.7333 22.05L11.0833 25.0834C11.0833 25.4334 11.3167 25.6667 11.6667 25.6667H16.3333C16.6833 25.6667 16.9167 25.4334 16.9167 25.0834L17.2667 22.05C18.0833 21.7 18.7833 21.35 19.3667 20.8834L22.1667 22.1667C22.4 22.2834 22.75 22.1667 22.8667 21.9334L25.2 17.85C25.3167 17.6167 25.3167 17.2667 25.0833 17.0334L22.6333 15.1667ZM14 18.6667C11.4333 18.6667 9.33333 16.5667 9.33333 14C9.33333 11.4334 11.4333 9.33337 14 9.33337C16.5667 9.33337 18.6667 11.4334 18.6667 14C18.6667 16.5667 16.5667 18.6667 14 18.6667Z" fill="#5CB85C"/>
</g>
<defs>
<clipPath id="clip0_12_27">
<rect width="28" height="28" fill="white"/>
</clipPath>
</defs>
</svg>
