<svg width="28" height="28" viewBox="0 0 28 28" fill="none" xmlns="http://www.w3.org/2000/svg">
<path d="M24.023 19.353H7.47799L7.02932 16.6651H24.0978C24.6358 16.6668 25.1576 16.4532 25.5738 16.0609C25.9899 15.6685 26.2744 15.1219 26.3785 14.5147L27.9489 5.91342C28.0212 5.52221 28.0168 5.11737 27.9358 4.72841C27.8548 4.33946 27.6994 3.97618 27.4809 3.66508C27.2624 3.35398 26.9862 3.10289 26.6726 2.93013C26.359 2.75736 26.0159 2.66726 25.6681 2.66641H4.67376L4.26247 0H3.05176e-05V2.68792H2.33689L5.14113 19.5465C4.32668 19.7679 3.60033 20.2971 3.07836 21.0496C2.55639 21.802 2.26898 22.7341 2.26211 23.6967C2.30589 24.8812 2.75486 25.9979 3.51122 26.8035C4.26757 27.609 5.27003 28.0381 6.30021 27.9973C7.32218 28.0265 8.31302 27.5915 9.05827 26.7866C9.80351 25.9817 10.2432 24.8717 10.2822 23.6967C10.2788 23.1274 10.1771 22.5646 9.98311 22.0409H20.2466C20.0526 22.5646 19.951 23.1274 19.9475 23.6967C19.9913 24.8812 20.4402 25.9979 21.1966 26.8035C21.953 27.609 22.9554 28.0381 23.9856 27.9973C24.9772 27.9973 25.9283 27.5442 26.6295 26.7377C27.3306 25.9312 27.7246 24.8373 27.7246 23.6967C27.7246 22.5561 27.3306 21.4622 26.6295 20.6556C25.9283 19.8491 24.9772 19.396 23.9856 19.396L24.023 19.353Z" fill="#5CB85C"/>
</svg>
